<?xml version="1.0" standalone="no"?>
<!DOCTYPE svg PUBLIC "-//W3C//DTD SVG 20010904//EN"
 "http://www.w3.org/TR/2001/REC-SVG-20010904/DTD/svg10.dtd">
<svg version="1.0" xmlns="http://www.w3.org/2000/svg"
 width="512.000000pt" height="512.000000pt" viewBox="0 0 512.000000 512.000000"
 preserveAspectRatio="xMidYMid meet">
<metadata>
Created by potrace 1.11, written by Peter Selinger 2001-2013
</metadata>
<g transform="translate(0.000000,512.000000) scale(0.100000,-0.100000)"
fill="#000000" stroke="none">
<path d="M293 3532 c-41 -3 -54 -14 -34 -26 5 -3 7 -15 4 -25 -4 -16 -14 -19
-61 -19 -111 0 -103 5 -88 -49 30 -106 32 -100 -24 -97 -47 2 -66 -8 -37 -19
8 -4 8 -6 0 -6 -10 -1 -9 -21 4 -61 4 -12 7 -12 19 4 8 11 14 16 14 11 0 -5
-7 -17 -17 -27 -23 -26 -8 -35 19 -12 23 19 23 19 5 -2 -9 -11 -14 -24 -10
-28 4 -4 -1 -4 -11 0 -17 6 -17 5 -5 -17 7 -13 13 -33 13 -44 1 -11 6 -19 12
-18 6 1 11 -4 11 -12 0 -8 -5 -12 -10 -8 -5 3 -7 -3 -5 -13 2 -11 10 -18 18
-16 11 3 11 0 0 -13 -17 -21 -5 -31 17 -14 16 12 16 11 0 -8 -12 -13 -16 -29
-12 -41 7 -24 11 -46 20 -106 4 -25 11 -43 16 -40 5 3 7 -1 4 -8 -4 -11 12
-95 29 -158 3 -8 5 -23 5 -33 1 -12 6 -16 13 -11 10 5 10 4 1 -6 -7 -8 -9 -19
-4 -29 5 -9 12 -37 15 -63 5 -35 12 -48 24 -49 14 0 13 -2 -3 -9 l-20 -9 20 0
c17 -1 17 -3 5 -11 -13 -9 -13 -10 0 -10 13 0 13 -1 0 -10 -9 -6 -11 -10 -3
-10 7 0 10 -7 6 -17 -4 -9 -2 -14 3 -10 6 4 9 -6 6 -24 -2 -16 0 -29 6 -29 5
0 8 -13 7 -30 -3 -35 1 -36 29 -12 21 17 21 17 3 -4 -9 -11 -14 -24 -10 -29 5
-4 3 -5 -3 -2 -7 4 -9 -2 -6 -19 2 -14 10 -23 17 -21 6 3 12 -1 12 -8 0 -7 -6
-11 -14 -8 -9 4 -11 0 -7 -11 3 -9 11 -13 18 -9 8 4 8 3 0 -6 -16 -17 -5 -61
15 -62 13 0 12 -2 -3 -8 -16 -6 -16 -9 -5 -22 8 -8 15 -34 17 -59 4 -47 14
-60 43 -55 9 2 26 -6 36 -18 18 -21 17 -21 -1 -7 -24 19 -66 21 -66 3 0 -8 5
-11 12 -7 7 4 8 3 4 -5 -11 -18 3 -72 17 -64 8 5 8 2 0 -9 -7 -8 -11 -17 -8
-19 2 -3 6 -18 9 -34 6 -29 11 -54 20 -92 2 -10 14 -61 26 -113 11 -52 26
-101 33 -109 9 -12 9 -13 0 -7 -16 9 -16 7 2 -43 8 -23 14 -45 15 -49 0 -4 4
-7 9 -7 5 0 13 -4 18 -9 5 -5 3 -6 -5 -2 -19 11 -26 -22 -12 -52 8 -15 13 -32
11 -39 -3 -20 169 -15 188 6 9 9 13 12 8 7 -13 -17 -8 -26 14 -26 12 0 28 8
35 18 13 16 14 16 8 -1 -8 -23 32 -23 54 1 10 9 14 13 10 8 -14 -18 -8 -26 16
-26 13 0 27 6 29 13 4 9 6 9 6 0 1 -19 40 -16 59 5 10 9 14 13 9 8 -13 -17 -8
-26 14 -26 12 0 28 8 35 18 13 16 14 16 8 0 -5 -15 2 -17 60 -16 36 1 66 5 66
10 0 17 2 23 10 33 4 6 11 27 15 48 5 26 14 41 28 46 12 4 26 23 32 42 12 33
13 34 68 34 31 1 59 4 63 8 4 4 1 7 -7 7 -11 1 -10 3 2 10 9 5 20 27 24 47 5
21 10 45 13 53 2 8 5 27 6 42 0 14 4 24 9 21 4 -2 7 -1 8 4 0 4 2 15 4 23 2 8
6 25 9 38 3 12 8 27 12 34 4 6 3 8 -4 4 -6 -3 -14 -1 -18 5 -4 8 -3 9 5 5 7
-5 17 6 27 29 18 44 13 67 -13 58 -19 -7 -18 -5 11 17 13 10 17 10 12 3 -4 -7
-3 -13 2 -13 9 0 43 117 46 158 0 9 5 20 9 23 5 3 9 20 9 37 1 18 4 32 8 32 9
0 35 109 32 140 -1 19 1 21 8 10 7 -12 12 -11 32 5 23 20 23 20 7 0 -17 -20
-17 -83 -1 -94 4 -4 8 -22 10 -41 1 -19 7 -37 13 -41 6 -3 10 -8 8 -10 -2 -3
9 -64 16 -91 2 -5 3 -13 4 -19 0 -5 5 -8 10 -4 5 3 13 0 17 -6 4 -7 3 -9 -4
-5 -6 3 -13 2 -16 -3 -4 -5 -2 -12 4 -16 5 -3 10 -17 10 -31 0 -13 3 -24 8
-24 4 0 8 -10 9 -23 3 -25 5 -36 22 -97 13 -45 19 -68 20 -83 1 -5 6 -5 13 -1
7 4 8 3 4 -4 -5 -9 4 -58 28 -152 3 -8 5 -19 5 -23 1 -5 5 -6 10 -3 5 4 7 -4
3 -16 -4 -16 -2 -19 9 -13 12 8 12 6 0 -8 -7 -9 -9 -17 -4 -17 6 0 10 -13 11
-29 0 -17 6 -39 12 -51 7 -12 13 -36 16 -52 5 -40 10 -44 31 -27 15 11 15 10
-1 -9 -19 -22 -19 -22 2 -22 11 0 23 6 25 13 4 10 6 10 6 0 1 -7 12 -13 25
-13 13 0 27 6 29 13 4 10 6 10 6 0 1 -17 48 -17 54 0 4 9 6 9 6 0 1 -17 48
-17 54 0 4 9 6 9 6 0 1 -17 48 -17 54 0 4 9 6 9 6 0 1 -7 13 -13 27 -13 18 0
23 4 17 13 -9 15 -12 77 -2 72 3 -3 5 -18 4 -35 -1 -16 3 -34 9 -39 13 -11
276 -12 276 -1 0 5 3 17 7 27 6 17 5 17 -18 -2 -19 -15 -17 -12 5 12 19 21 27
39 23 52 -3 12 -1 21 5 21 5 0 6 5 3 10 -4 6 5 10 20 10 26 0 29 4 39 51 5 21
11 26 33 25 16 -1 34 3 42 9 11 7 13 7 8 -1 -4 -8 2 -11 18 -10 25 1 36 18 41
61 1 11 5 31 9 45 15 62 18 76 19 98 1 12 4 22 7 22 3 0 6 6 6 13 0 6 10 56
22 110 12 54 19 103 16 108 -4 5 -2 9 3 9 5 0 9 6 10 13 1 6 14 66 30 133 16
67 28 131 27 143 -1 11 3 21 8 21 5 0 3 8 -4 17 -8 9 -9 14 -2 10 13 -8 28 27
18 42 -3 5 -1 12 4 16 5 3 8 14 6 25 -2 11 -1 20 3 20 4 0 8 9 9 20 1 13 -3
18 -10 14 -7 -3 -4 1 5 9 14 11 15 16 5 27 -9 10 -9 11 1 6 6 -4 12 -2 12 3 0
18 -5 26 -13 23 -5 -1 -6 2 -2 8 3 6 11 8 16 5 5 -4 10 5 10 19 2 28 3 33 11
56 4 8 11 35 16 59 9 38 8 47 -6 57 -16 12 -15 12 2 11 15 -2 21 8 31 49 6 27
9 56 7 62 -2 7 1 12 7 12 6 0 11 -4 11 -8 0 -4 9 -8 20 -9 13 -1 18 2 14 9 -5
7 -2 8 7 3 20 -13 49 -13 49 -1 0 7 3 7 8 1 11 -15 64 -17 55 -2 -5 9 -3 9 8
0 12 -10 18 -10 27 -1 7 7 12 8 12 2 0 -5 18 -10 40 -10 23 0 37 3 33 9 -4 6
-1 7 8 2 20 -13 49 -13 49 -1 0 7 3 7 8 1 11 -15 64 -17 55 -2 -5 9 -3 9 8 0
12 -10 18 -10 27 -1 7 7 12 8 12 2 0 -5 11 -11 24 -12 20 -1 24 2 21 20 -3 11
-2 18 2 14 3 -3 13 0 22 6 12 10 12 7 -2 -8 -16 -20 -14 -34 5 -34 5 0 6 6 2
13 -5 9 -4 9 6 0 9 -9 19 -9 33 -2 14 8 18 8 13 0 -4 -6 -2 -11 3 -11 6 0 11
6 11 13 0 7 3 8 8 2 4 -5 15 -11 26 -13 14 -3 17 1 12 15 -6 17 -5 17 8 0 7
-9 12 -31 11 -47 -1 -17 2 -30 9 -30 7 0 7 -3 -1 -8 -28 -18 13 -111 41 -95 6
3 7 2 3 -2 -10 -11 -39 -16 -32 -5 3 4 -2 13 -9 20 -12 9 -14 6 -13 -22 1 -18
6 -36 12 -40 6 -5 5 -8 -2 -8 -7 0 -13 -5 -13 -11 0 -5 5 -7 12 -3 7 5 8 3 2
-7 -5 -8 -9 -21 -9 -29 -1 -21 36 -61 49 -53 6 3 7 2 3 -2 -10 -11 -39 -16
-32 -5 3 4 -2 13 -9 20 -12 9 -14 6 -13 -22 1 -18 6 -36 12 -40 6 -5 5 -8 -2
-8 -7 0 -13 -5 -13 -11 0 -5 5 -7 12 -3 7 5 8 3 2 -7 -12 -19 -12 -52 1 -61 7
-5 6 -8 -1 -8 -12 0 -12 -29 1 -49 5 -9 4 -12 -2 -8 -6 4 -9 -10 -9 -33 0 -22
4 -40 9 -40 5 0 5 -6 -2 -13 -8 -10 -7 -17 2 -27 9 -10 9 -11 0 -6 -15 8 -13
-45 2 -56 6 -5 5 -8 -2 -8 -18 0 -10 -56 12 -80 10 -11 23 -17 29 -13 6 3 7 2
3 -2 -10 -11 -39 -16 -32 -5 3 4 -2 13 -9 20 -12 9 -14 6 -13 -22 1 -18 6 -36
12 -40 6 -5 5 -8 -2 -8 -7 0 -13 -5 -13 -11 0 -5 5 -7 11 -3 8 5 8 1 0 -13 -7
-14 -7 -24 2 -33 9 -10 9 -11 0 -6 -8 4 -11 -2 -9 -20 3 -26 23 -47 38 -38 15
9 8 -3 -9 -17 -9 -8 -14 -9 -10 -3 4 7 0 14 -7 17 -11 5 -14 -3 -12 -36 1 -23
6 -49 11 -56 5 -10 4 -12 -3 -7 -15 9 -12 -36 3 -46 6 -5 5 -8 -2 -8 -7 0 -13
-5 -13 -11 0 -5 5 -7 11 -3 8 5 8 1 0 -14 -14 -27 -14 -35 1 -26 7 5 8 3 2 -7
-5 -8 -9 -21 -9 -29 -1 -21 36 -61 49 -53 6 3 7 2 3 -2 -10 -11 -39 -16 -32
-5 3 4 -2 13 -9 20 -12 9 -14 6 -13 -22 1 -18 6 -36 12 -40 6 -5 5 -8 -2 -8
-7 0 -13 -5 -13 -11 0 -5 5 -7 12 -3 7 5 8 3 2 -7 -12 -19 -12 -52 1 -61 7 -5
6 -8 -1 -8 -12 0 -12 -29 1 -49 5 -9 4 -12 -2 -8 -5 4 -10 -7 -10 -23 l0 -30
114 0 c64 0 112 4 109 9 -3 5 2 15 12 22 15 13 16 12 3 -3 -11 -15 -11 -19 2
-24 9 -3 26 -4 39 -2 20 3 23 8 22 45 0 23 3 40 6 38 4 -2 6 -22 5 -45 -2 -34
1 -40 18 -40 11 0 26 8 33 18 13 16 14 16 8 0 -5 -14 -1 -18 20 -18 23 0 30 9
28 31 -1 4 9 15 21 25 21 18 21 18 7 1 -8 -11 -15 -28 -17 -38 -4 -25 34 -26
53 -1 13 16 14 16 8 0 -5 -14 -1 -18 20 -18 14 0 26 3 27 8 1 4 2 24 3 44 1
21 5 40 8 44 4 3 5 -17 3 -45 -3 -46 -1 -51 17 -51 12 0 27 8 34 18 13 16 14
16 7 -2 -4 -13 -2 -17 7 -14 7 2 14 14 15 26 2 24 -21 25 -52 2 -17 -14 -17
-13 1 7 10 13 22 20 27 18 11 -8 23 16 23 45 -1 14 -6 24 -13 22 -7 -1 -10 2
-6 8 3 5 26 10 50 10 43 0 44 0 47 38 2 28 7 37 20 36 10 -1 15 3 11 9 -4 6
-1 7 7 2 7 -4 32 -8 56 -9 l43 -1 -1 100 c-1 55 -6 106 -12 114 -8 11 -8 13 0
8 8 -5 11 11 10 51 -1 40 -5 56 -13 55 -7 -2 -13 2 -13 8 0 6 6 9 14 6 12 -5
14 22 14 166 -1 108 -5 177 -12 186 -8 11 -8 13 0 8 16 -9 16 532 0 552 -9 12
-8 13 2 7 11 -6 12 -1 8 26 -5 30 -2 37 20 47 15 6 23 7 19 1 -3 -5 -1 -10 4
-10 6 0 11 6 11 13 0 7 3 8 8 2 4 -6 22 -11 40 -12 28 -1 31 1 22 13 -7 7 -16
12 -20 9 -11 -7 -6 22 5 32 4 4 5 3 2 -3 -8 -13 32 -50 53 -49 8 0 21 4 29 9
10 6 12 5 7 -2 -4 -7 -2 -12 3 -12 6 0 11 6 11 13 0 7 3 8 8 2 4 -6 22 -11 40
-12 28 -1 31 1 22 13 -7 7 -16 12 -20 9 -11 -7 -6 22 5 32 4 4 5 3 2 -3 -8
-13 32 -50 53 -49 8 0 21 4 28 8 7 5 12 3 12 -3 0 -8 6 -7 21 1 15 8 19 8 15
0 -4 -6 -2 -11 3 -11 6 0 11 6 11 13 0 8 4 7 10 -3 7 -10 10 9 10 62 l0 77 35
-3 c19 -2 35 -1 36 3 1 3 2 18 3 34 4 38 8 41 76 38 65 -2 60 -7 64 64 0 17
-6 36 -14 43 -13 10 -13 11 3 6 22 -8 20 15 -3 33 -13 12 -13 12 0 8 12 -4 15
5 15 47 0 35 -5 57 -15 66 -13 10 -13 11 3 6 22 -8 20 15 -3 33 -13 12 -13 12
0 8 13 -4 15 8 14 73 0 43 -4 84 -9 92 -5 9 -4 11 3 6 7 -4 12 -2 12 3 0 7
-23 11 -55 11 -70 0 -71 0 -67 -13 2 -6 -3 -5 -12 2 -17 14 -506 22 -506 8 0
-5 -3 -6 -8 -3 -4 2 -37 5 -72 7 -51 1 -64 -1 -62 -12 1 -9 -3 -7 -12 4 -9 12
-16 14 -21 7 -3 -5 -11 -8 -16 -4 -6 3 -51 6 -101 6 -65 0 -93 -4 -99 -14 -7
-10 -9 -8 -9 6 0 14 -3 16 -13 7 -8 -6 -16 -8 -19 -5 -13 12 -248 7 -263 -6
-13 -11 -14 -10 -9 4 3 9 1 16 -5 16 -10 0 -15 -14 -12 -33 1 -5 -3 -6 -9 -2
-6 3 -8 10 -5 15 3 4 -25 10 -61 12 -51 2 -68 0 -75 -12 -7 -12 -8 -12 -9 4 0
14 -3 16 -13 7 -8 -6 -17 -8 -20 -5 -11 12 -147 6 -162 -6 -13 -11 -14 -10 -9
6 7 18 6 18 -16 -1 -13 -11 -20 -14 -16 -7 5 8 -2 12 -23 12 -39 0 -47 -3 -43
-15 1 -5 -4 -2 -11 7 -8 10 -17 15 -20 11 -4 -3 -1 -13 6 -22 10 -14 10 -14
-4 -4 -9 7 -19 9 -23 5 -4 -4 -6 -2 -4 3 4 12 -4 15 -32 15 -11 0 -19 -3 -19
-7 1 -5 1 -20 0 -34 -1 -24 -5 -27 -35 -27 -18 0 -39 4 -47 9 -12 7 -12 9 0 9
11 0 9 4 -5 15 -16 13 -16 14 -1 9 11 -4 17 -1 17 10 0 9 -4 16 -10 17 -78 4
-134 -1 -141 -12 -7 -11 -9 -10 -9 5 0 14 -3 16 -13 7 -8 -6 -17 -8 -20 -5
-11 12 -147 6 -162 -6 -13 -11 -14 -10 -9 6 7 18 6 18 -16 -1 -13 -11 -20 -14
-16 -7 5 8 -2 12 -23 12 -39 0 -47 -3 -43 -15 1 -5 -4 -2 -11 7 -8 10 -17 15
-20 11 -4 -3 -1 -13 6 -22 10 -14 10 -14 -4 -4 -9 7 -19 9 -23 5 -4 -4 -6 -1
-4 7 4 18 -49 21 -70 3 -10 -7 -11 -10 -3 -7 9 6 9 1 -3 -17 -9 -14 -13 -28
-9 -32 4 -3 -11 -6 -33 -5 -21 1 -53 1 -70 0 -34 -1 -34 -3 -51 -106 -6 -35
-9 -40 -30 -40 -19 0 -31 -38 -35 -107 -2 -27 -6 -48 -10 -48 -5 0 -8 -7 -8
-16 0 -13 3 -14 14 -5 11 9 16 9 22 0 4 -7 3 -10 -2 -6 -13 8 -40 -15 -39 -33
1 -8 6 -14 11 -13 6 1 11 -5 11 -12 0 -11 -4 -12 -14 -4 -7 6 -13 8 -14 3 -3
-31 -11 -73 -18 -95 -6 -18 -5 -31 2 -39 8 -8 8 -11 1 -7 -16 9 -34 -78 -20
-94 8 -9 8 -10 0 -6 -7 4 -14 -9 -19 -36 -6 -31 -9 -36 -12 -19 -3 12 -9 20
-14 17 -5 -4 -8 2 -7 12 3 40 -3 74 -12 68 -5 -3 -7 0 -4 8 2 7 -2 34 -10 59
-9 24 -18 55 -20 69 -3 13 -5 25 -7 27 -1 1 -3 7 -4 12 -1 6 -4 12 -5 15 -1 3
-3 8 -4 13 -1 4 -6 22 -10 40 -7 29 -16 37 -39 33 -5 -1 -6 3 -2 8 3 6 12 8
19 5 11 -4 12 2 3 35 -6 22 -14 38 -18 35 -4 -2 -7 6 -7 19 0 12 -2 29 -4 37
-3 8 -8 32 -13 53 -6 30 -11 36 -25 32 -10 -3 -21 -2 -24 3 -3 6 2 9 12 8 14
-1 16 6 14 34 -2 19 -7 37 -11 40 -4 3 -6 12 -6 20 2 37 -22 52 -83 52 -33 0
-65 -3 -71 -6 -6 -4 -11 -2 -11 5 0 8 -3 9 -13 0 -8 -6 -16 -8 -19 -5 -6 5
-102 6 -336 5 -80 -1 -83 -2 -77 -22 5 -13 3 -19 -3 -15 -5 3 -12 -2 -14 -12
-4 -15 -15 -18 -54 -18 -55 1 -84 -8 -84 -28 0 -34 -32 -116 -45 -116 -8 0
-16 -4 -16 -10 -2 -13 -6 -29 -9 -32 -1 -2 -3 -11 -6 -20 -6 -27 -10 -41 -17
-58 -3 -8 -10 -33 -15 -55 -6 -22 -17 -66 -26 -98 -9 -32 -14 -62 -11 -67 3
-5 -1 -11 -7 -13 -10 -4 -9 -8 2 -16 13 -9 13 -11 -2 -11 -10 0 -17 -3 -16 -7
1 -5 -4 -21 -11 -37 -6 -16 -9 -36 -6 -46 3 -9 -2 -23 -10 -30 -14 -12 -14
-15 0 -30 12 -14 13 -20 4 -26 -7 -4 -10 -3 -5 4 3 6 2 13 -4 17 -5 3 -10 -2
-10 -12 0 -11 -6 -27 -13 -37 -12 -17 -13 -16 -13 6 0 45 -27 168 -38 168 -7
0 -8 3 -1 8 7 5 7 25 -1 62 -6 32 -13 49 -17 40 -3 -8 -3 0 0 19 5 28 3 32 -8
26 -12 -7 -12 -6 -1 7 9 11 10 18 2 23 -6 3 -8 11 -4 16 3 6 -2 17 -12 25 -18
14 -18 14 0 8 16 -6 17 -4 7 14 -6 12 -12 38 -13 57 -1 19 -6 35 -11 35 -6 0
-7 3 -4 7 4 3 1 13 -6 21 -9 13 -9 14 1 8 6 -4 12 -2 12 3 0 6 -4 11 -9 11 -4
0 -6 11 -3 25 2 14 0 26 -7 26 -26 3 -30 4 -37 11 -3 4 3 5 15 3 21 -4 22 -2
15 43 -3 26 -10 51 -14 56 -5 5 -6 15 -3 24 4 9 2 13 -4 9 -7 -5 -9 0 -6 13 3
13 0 20 -8 21 -8 0 -26 2 -41 3 -16 1 -28 -1 -28 -5 0 -3 -18 -3 -39 1 -25 4
-44 3 -50 -3 -8 -8 -11 -7 -11 4 -1 10 -5 9 -15 -5 -8 -11 -15 -15 -15 -9 0
14 -67 22 -80 9 -7 -7 -10 -6 -10 3 0 10 -3 11 -13 2 -8 -6 -16 -8 -20 -5 -6
6 -160 11 -224 6z m1678 -29 c13 -16 12 -17 -3 -4 -10 7 -18 15 -18 17 0 8 8
3 21 -13z m1914 8 c3 -5 2 -12 -3 -15 -5 -3 -9 1 -9 9 0 17 3 19 12 6z m276
-24 c-10 -9 -11 -8 -5 6 3 10 9 15 12 12 3 -3 0 -11 -7 -18z m-3658 -2 c-3 -9
-8 -14 -10 -11 -3 3 -2 9 2 15 9 16 15 13 8 -4z m244 0 c0 -8 -4 -15 -9 -15
-10 0 -11 14 -1 23 9 10 10 9 10 -8z m1036 0 c-3 -9 -8 -14 -10 -11 -3 3 -2 9
2 15 9 16 15 13 8 -4z m960 0 c-3 -9 -8 -14 -10 -11 -3 3 -2 9 2 15 9 16 15
13 8 -4z m244 -12 c1 -22 -1 -24 -8 -10 -6 9 -7 22 -4 27 9 14 10 13 12 -17z
m42 14 c8 -10 7 -14 -2 -14 -8 0 -14 6 -14 14 0 7 1 13 2 13 2 0 8 -6 14 -13z
m354 -2 c-3 -9 -8 -14 -10 -11 -3 3 -2 9 2 15 9 16 15 13 8 -4z m240 0 c-3 -9
-8 -14 -10 -11 -3 3 -2 9 2 15 9 16 15 13 8 -4z m480 0 c-3 -9 -8 -14 -10 -11
-3 3 -2 9 2 15 9 16 15 13 8 -4z m320 0 c-3 -9 -8 -14 -10 -11 -3 3 -2 9 2 15
9 16 15 13 8 -4z m560 0 c-3 -9 -8 -14 -10 -11 -3 3 -2 9 2 15 9 16 15 13 8
-4z m-4673 -5 c0 -5 -2 -10 -4 -10 -3 0 -8 5 -11 10 -3 6 -1 10 4 10 6 0 11
-4 11 -10z m40 4 c0 -8 -19 -13 -24 -6 -3 5 1 9 9 9 8 0 15 -2 15 -3z m60 2
c0 -2 -7 -7 -16 -10 -8 -3 -12 -2 -9 4 6 10 25 14 25 6z m240 -2 c0 -8 -19
-13 -24 -6 -3 5 1 9 9 9 8 0 15 -2 15 -3z m160 -6 c0 -4 -4 -8 -9 -8 -6 0 -12
4 -15 8 -3 5 1 9 9 9 8 0 15 -4 15 -9z m620 2 c0 -5 -2 -10 -4 -10 -3 0 -8 5
-11 10 -3 6 -1 10 4 10 6 0 11 -4 11 -10z m80 0 c0 -5 -2 -10 -4 -10 -3 0 -8
5 -11 10 -3 6 -1 10 4 10 6 0 11 -4 11 -10z m80 0 c0 -5 -2 -10 -4 -10 -3 0
-8 5 -11 10 -3 6 -1 10 4 10 6 0 11 -4 11 -10z m40 4 c0 -8 -19 -13 -24 -6 -3
5 1 9 9 9 8 0 15 -2 15 -3z m60 2 c0 -2 -7 -7 -16 -10 -8 -3 -12 -2 -9 4 6 10
25 14 25 6z m170 -2 c0 -8 -19 -13 -24 -6 -3 5 1 9 9 9 8 0 15 -2 15 -3z m25
-4 c3 -5 1 -10 -4 -10 -6 0 -11 5 -11 10 0 6 2 10 4 10 3 0 8 -4 11 -10z m665
0 c0 -5 -2 -10 -4 -10 -3 0 -8 5 -11 10 -3 6 -1 10 4 10 6 0 11 -4 11 -10z
m70 4 c0 -8 -19 -13 -24 -6 -3 5 1 9 9 9 8 0 15 -2 15 -3z m270 0 c0 -8 -19
-13 -24 -6 -3 5 1 9 9 9 8 0 15 -2 15 -3z m370 0 c0 -8 -19 -13 -24 -6 -3 5 1
9 9 9 8 0 15 -2 15 -3z m270 0 c0 -8 -19 -13 -24 -6 -3 5 1 9 9 9 8 0 15 -2
15 -3z m240 0 c0 -8 -19 -13 -24 -6 -3 5 1 9 9 9 8 0 15 -2 15 -3z m240 0 c0
-8 -19 -13 -24 -6 -3 5 1 9 9 9 8 0 15 -2 15 -3z m245 -4 c3 -6 -1 -7 -9 -4
-18 7 -21 14 -7 14 6 0 13 -4 16 -10z m295 0 c0 -5 -2 -10 -4 -10 -3 0 -8 5
-11 10 -3 6 -1 10 4 10 6 0 11 -4 11 -10z m80 0 c0 -5 -2 -10 -4 -10 -3 0 -8
5 -11 10 -3 6 -1 10 4 10 6 0 11 -4 11 -10z m80 0 c0 -5 -2 -10 -4 -10 -3 0
-8 5 -11 10 -3 6 -1 10 4 10 6 0 11 -4 11 -10z m80 0 c0 -5 -2 -10 -4 -10 -3
0 -8 5 -11 10 -3 6 -1 10 4 10 6 0 11 -4 11 -10z m40 4 c0 -8 -19 -13 -24 -6
-3 5 1 9 9 9 8 0 15 -2 15 -3z m60 2 c0 -2 -7 -7 -16 -10 -8 -3 -12 -2 -9 4 6
10 25 14 25 6z m116 -11 c-1 -8 -5 -17 -8 -21 -5 -4 -4 16 1 34 3 9 9 -1 7
-13z m54 10 c0 -1 -10 -10 -22 -21 -14 -12 -18 -13 -10 -3 6 9 10 18 7 21 -3
2 2 5 10 5 8 0 15 -1 15 -2z m24 -11 c3 -8 2 -12 -4 -9 -6 3 -10 10 -10 16 0
14 7 11 14 -7z m-3104 -8 c0 -2 -8 -10 -17 -17 -16 -13 -17 -12 -4 4 13 16 21
21 21 13z m-1224 -28 c3 -4 -1 -5 -10 -4 -8 1 -18 5 -22 8 -3 4 1 5 10 4 8 -1
18 -5 22 -8z m1114 2 c0 -5 -2 -10 -4 -10 -3 0 -8 5 -11 10 -3 6 -1 10 4 10 6
0 11 -4 11 -10z m3205 0 c3 -6 -1 -7 -9 -4 -18 7 -21 14 -7 14 6 0 13 -4 16
-10z m-2081 -18 c3 -5 -1 -9 -9 -9 -8 0 -12 4 -9 9 3 4 7 8 9 8 2 0 6 -4 9 -8z
m36 -16 c0 -3 -4 -8 -10 -11 -5 -3 -10 -1 -10 4 0 6 5 11 10 11 6 0 10 -2 10
-4z m-2265 -54 c-3 -3 -11 0 -18 7 -9 10 -8 11 6 5 10 -3 15 -9 12 -12z m4305
14 c0 -2 -7 -7 -16 -10 -8 -3 -12 -2 -9 4 6 10 25 14 25 6z m-4263 -23 c-4 -3
-1 -13 6 -22 11 -14 10 -14 -5 -2 -21 15 -23 31 -6 31 6 0 8 -3 5 -7z m4223
-24 c0 -5 -4 -9 -8 -9 -5 0 -9 7 -9 15 0 8 4 12 9 9 4 -3 8 -9 8 -15z m-4260
1 c0 -5 -2 -10 -4 -10 -3 0 -8 5 -11 10 -3 6 -1 10 4 10 6 0 11 -4 11 -10z
m100 1 c0 -6 -4 -12 -8 -15 -5 -3 -9 1 -9 9 0 8 4 15 9 15 4 0 8 -4 8 -9z
m1100 -1 c0 -5 -2 -10 -4 -10 -3 0 -8 5 -11 10 -3 6 -1 10 4 10 6 0 11 -4 11
-10z m34 2 c3 -5 -1 -9 -9 -9 -8 0 -12 4 -9 9 3 4 7 8 9 8 2 0 6 -4 9 -8z
m-1174 -26 c0 -2 -8 -10 -17 -17 -16 -13 -17 -12 -4 4 13 16 21 21 21 13z
m1118 -21 c-3 -3 -9 2 -12 12 -6 14 -5 15 5 6 7 -7 10 -15 7 -18z m42 11 c0
-2 -7 -7 -16 -10 -8 -3 -12 -2 -9 4 6 10 25 14 25 6z m3004 -4 c3 -5 -1 -9 -9
-9 -8 0 -12 4 -9 9 3 4 7 8 9 8 2 0 6 -4 9 -8z m-4849 -30 c-3 -3 -11 0 -18 7
-9 10 -8 11 6 5 10 -3 15 -9 12 -12z m678 -5 c4 3 7 4 7 0 0 -17 -20 -14 -36
6 -19 22 -19 22 2 4 11 -9 24 -14 27 -10z m1496 9 c9 -11 9 -16 -1 -22 -7 -4
-10 -4 -6 1 4 4 3 14 -3 22 -6 7 -9 13 -6 13 2 0 10 -6 16 -14z m2736 4 c3 -6
-1 -7 -9 -4 -18 7 -21 14 -7 14 6 0 13 -4 16 -10z m-3104 -17 c13 -16 12 -17
-3 -4 -17 13 -22 21 -14 21 2 0 10 -8 17 -17z m-1090 -10 c13 -16 12 -17 -3
-4 -10 7 -18 15 -18 17 0 8 8 3 21 -13z m1153 6 c3 -3 -5 -5 -19 -5 -13 0 -22
3 -19 7 4 8 30 6 38 -2z m13 -34 c0 -8 -4 -12 -9 -9 -5 3 -6 10 -3 15 9 13 12
11 12 -6z m-1183 -11 c3 -8 2 -12 -4 -9 -6 3 -10 10 -10 16 0 14 7 11 14 -7z
m4226 12 c0 -2 -7 -7 -16 -10 -8 -3 -12 -2 -9 4 6 10 25 14 25 6z m-3100 -10
c0 -2 -8 -10 -17 -17 -16 -13 -17 -12 -4 4 13 16 21 21 21 13z m61 -33 c13
-16 12 -17 -3 -4 -17 13 -22 21 -14 21 2 0 10 -8 17 -17z m3013 -12 c-2 -3
-12 3 -22 13 -16 17 -16 18 5 5 12 -7 20 -15 17 -18z m-4928 -9 c-17 -16 -18
-16 -5 5 7 12 15 20 18 17 3 -2 -3 -12 -13 -22z m734 24 c0 -3 -4 -8 -10 -11
-5 -3 -10 -1 -10 4 0 6 5 11 10 11 6 0 10 -2 10 -4z m1155 -27 c-3 -12 -7 -24
-10 -27 -3 -3 -3 5 -1 19 6 30 5 29 10 29 3 0 3 -10 1 -21z m-1121 3 c3 -5 -1
-9 -9 -9 -8 0 -12 4 -9 9 3 4 7 8 9 8 2 0 6 -4 9 -8z m1081 -12 c10 -11 16
-20 13 -20 -3 0 -13 9 -23 20 -10 11 -16 20 -13 20 3 0 13 -9 23 -20z m-1815
6 c0 -2 -8 -10 -17 -17 -16 -13 -17 -12 -4 4 13 16 21 21 21 13z m30 -9 c0 -2
-10 -12 -22 -23 l-23 -19 19 23 c18 21 26 27 26 19z m1900 -1 c0 -2 -8 -10
-17 -17 -16 -13 -17 -12 -4 4 13 16 21 21 21 13z m861 -19 c-10 -9 -11 -8 -5
6 3 10 9 15 12 12 3 -3 0 -11 -7 -18z m2053 15 c3 -5 -1 -9 -9 -9 -8 0 -12 4
-9 9 3 4 7 8 9 8 2 0 6 -4 9 -8z m-4108 -25 c0 -13 -6 -24 -13 -24 -6 0 -9 5
-5 11 4 6 7 14 8 19 5 26 10 23 10 -6z m4169 3 c3 -6 -1 -7 -9 -4 -18 7 -21
14 -7 14 6 0 13 -4 16 -10z m-3028 -15 c0 -8 -4 -15 -9 -15 -10 0 -11 14 -1
23 9 10 10 9 10 -8z m-1200 -10 c0 -8 -4 -12 -9 -9 -4 3 -8 9 -8 15 0 5 4 9 8
9 5 0 9 -7 9 -15z m1258 -3 c-3 -3 -11 0 -18 7 -9 10 -8 11 6 5 10 -3 15 -9
12 -12z m-1221 -42 c-6 -6 -10 -3 -10 10 0 13 4 16 10 10 7 -7 7 -13 0 -20z
m1227 13 c13 -16 12 -17 -3 -4 -10 7 -18 15 -18 17 0 8 8 3 21 -13z m-1909 -4
c2 -2 1 -3 -1 -2 -2 2 -9 -2 -16 -7 -8 -7 -12 -5 -12 4 0 12 22 16 29 5z m723
-7 c-3 -3 -11 0 -18 7 -9 10 -8 11 6 5 10 -3 15 -9 12 -12z m1131 5 c4 -3 -4
-4 -16 -2 -30 6 -40 16 -12 12 12 -2 24 -6 28 -10z m24 -11 c0 -2 -8 -10 -17
-17 -16 -13 -17 -12 -4 4 13 16 21 21 21 13z m224 -4 c3 -5 -1 -9 -9 -9 -8 0
-12 4 -9 9 3 4 7 8 9 8 2 0 6 -4 9 -8z m-2104 -17 c-7 -9 -15 -13 -18 -10 -3
3 -12 -1 -21 -8 -14 -11 -14 -10 -2 5 7 10 17 16 21 13 5 -3 11 -1 15 5 3 5 9
10 12 10 3 0 0 -7 -7 -15z m1920 0 c-7 -8 -17 -15 -23 -15 -6 0 -2 7 9 15 25
19 30 19 14 0z m-1210 -5 c0 -5 -5 -10 -11 -10 -5 0 -7 5 -4 10 3 6 8 10 11
10 2 0 4 -4 4 -10z m2040 0 c0 -5 -5 -10 -11 -10 -5 0 -7 5 -4 10 3 6 8 10 11
10 2 0 4 -4 4 -10z m-2720 -4 c0 -2 -8 -10 -17 -17 -16 -13 -17 -12 -4 4 13
16 21 21 21 13z m1834 -15 c3 -4 -4 -17 -17 -27 -22 -19 -22 -19 -4 2 9 11 14
24 10 27 -3 4 -4 7 0 7 3 0 8 -4 11 -9z m846 -1 c0 -5 -2 -10 -4 -10 -3 0 -8
5 -11 10 -3 6 -1 10 4 10 6 0 11 -4 11 -10z m-619 -17 c13 -16 12 -17 -3 -4
-10 7 -18 15 -18 17 0 8 8 3 21 -13z m658 4 c8 -10 7 -14 -2 -14 -8 0 -14 6
-14 14 0 7 1 13 2 13 2 0 8 -6 14 -13z m-2089 -3 c0 -8 -19 -13 -24 -6 -3 5 1
9 9 9 8 0 15 -2 15 -3z m51 -21 c13 -16 12 -17 -3 -4 -10 7 -18 15 -18 17 0 8
8 3 21 -13z m2671 0 c-1 -4 7 -17 16 -28 17 -20 17 -20 -4 -2 -11 9 -21 24
-21 32 0 8 2 13 5 11 2 -2 4 -8 4 -13z m960 0 c-1 -4 7 -17 16 -28 17 -20 17
-20 -4 -2 -11 9 -21 24 -21 32 0 8 2 13 5 11 2 -2 4 -8 4 -13z m160 0 c-1 -4
7 -17 16 -28 17 -20 17 -20 -4 -2 -11 9 -21 24 -21 32 0 8 2 13 5 11 2 -2 4
-8 4 -13z m-4512 3 c0 -2 -7 -7 -16 -10 -8 -3 -12 -2 -9 4 6 10 25 14 25 6z
m37 -13 c0 -9 -4 -10 -14 -2 -7 6 -13 12 -13 14 0 1 6 2 13 2 8 0 14 -6 14
-14z m2878 -27 c1 -21 -4 -33 -12 -33 -7 0 -9 5 -4 11 4 6 7 23 6 39 -1 15 1
25 4 22 3 -4 6 -21 6 -39z m85 40 c0 -2 -7 -7 -16 -10 -8 -3 -12 -2 -9 4 6 10
25 14 25 6z m155 -40 c1 -21 -4 -33 -12 -33 -7 0 -9 5 -4 11 4 6 7 23 6 39 -1
15 1 25 4 22 3 -4 6 -21 6 -39z m85 40 c0 -2 -7 -7 -16 -10 -8 -3 -12 -2 -9 4
6 10 25 14 25 6z m1395 -5 c3 -5 2 -12 -3 -15 -5 -3 -9 1 -9 9 0 17 3 19 12 6z
m45 5 c0 -2 -7 -7 -16 -10 -8 -3 -12 -2 -9 4 6 10 25 14 25 6z m-1900 -10 c0
-2 -8 -10 -17 -17 -16 -13 -17 -12 -4 4 13 16 21 21 21 13z m-2769 -23 c13
-16 12 -17 -3 -4 -10 7 -18 15 -18 17 0 8 8 3 21 -13z m689 8 c0 -6 -4 -12 -8
-15 -5 -3 -9 1 -9 9 0 8 4 15 9 15 4 0 8 -4 8 -9z m1180 -1 c0 -5 -5 -10 -11
-10 -5 0 -7 5 -4 10 3 6 8 10 11 10 2 0 4 -4 4 -10z m35 -8 c-3 -3 -11 0 -18
7 -9 10 -8 11 6 5 10 -3 15 -9 12 -12z m821 6 c4 -7 3 -10 -1 -5 -5 4 -18 -1
-29 -10 -21 -18 -21 -18 -2 5 22 26 23 26 32 10z m90 -16 c-17 -16 -18 -16 -5
5 7 12 15 20 18 17 3 -2 -3 -12 -13 -22z m191 11 c0 -9 -4 -10 -14 -2 -7 6
-13 12 -13 14 0 1 6 2 13 2 8 0 14 -6 14 -14z m49 -11 c-17 -16 -18 -16 -5 5
7 12 15 20 18 17 3 -2 -3 -12 -13 -22z m191 11 c0 -9 -4 -10 -14 -2 -7 6 -13
12 -13 14 0 1 6 2 13 2 8 0 14 -6 14 -14z m53 12 c0 -2 -6 -8 -13 -14 -10 -8
-14 -7 -14 2 0 8 6 14 14 14 7 0 13 -1 13 -2z m171 -8 c-6 -8 -9 -16 -6 -19 3
-2 -2 -5 -10 -5 -13 0 -13 3 2 19 19 21 31 25 14 5z m960 0 c-6 -8 -9 -16 -6
-19 3 -2 -2 -5 -10 -5 -13 0 -13 3 2 19 19 21 31 25 14 5z m160 0 c-6 -8 -9
-16 -6 -19 3 -2 -2 -5 -10 -5 -13 0 -13 3 2 19 19 21 31 25 14 5z m96 -4 c0
-9 -4 -10 -14 -2 -7 6 -13 12 -13 14 0 1 6 2 13 2 8 0 14 -6 14 -14z m-1902
-2 c3 -5 2 -12 -3 -15 -5 -3 -9 1 -9 9 0 17 3 19 12 6z m-2772 -26 c11 2 16 1
13 -2 -3 -4 0 -13 6 -22 10 -12 7 -12 -8 2 -11 9 -23 15 -26 12 -3 -3 -13 5
-24 17 -19 23 -19 23 1 7 11 -9 28 -15 38 -14z m2968 8 c13 -16 12 -17 -3 -4
-10 7 -18 15 -18 17 0 8 8 3 21 -13z m240 0 c13 -16 12 -17 -3 -4 -17 13 -22
21 -14 21 2 0 10 -8 17 -17z m90 4 c-6 -8 -9 -17 -6 -20 3 -4 2 -5 -2 -2 -3 3
-11 0 -18 -5 -8 -7 -12 -5 -12 5 0 8 4 12 8 10 3 -3 12 2 19 10 7 8 15 15 17
15 3 0 0 -6 -6 -13z m1319 9 c0 -2 -7 -7 -16 -10 -8 -3 -12 -2 -9 4 6 10 25
14 25 6z m31 -13 c13 -16 12 -17 -3 -4 -10 7 -18 15 -18 17 0 8 8 3 21 -13z
m-2598 -8 c-3 -9 -8 -14 -10 -11 -3 3 -2 9 2 15 9 16 15 13 8 -4z m787 11 c0
-2 -8 -10 -17 -17 -16 -13 -17 -12 -4 4 13 16 21 21 21 13z m240 0 c0 -2 -8
-10 -17 -17 -16 -13 -17 -12 -4 4 13 16 21 21 21 13z m-1200 -18 c0 -6 -3 -8
-7 -5 -3 4 -13 1 -22 -6 -14 -11 -14 -10 -2 6 15 20 31 22 31 5z m1460 3 c0
-5 -8 -15 -17 -22 -16 -12 -17 -12 -6 2 7 9 10 19 6 22 -3 4 -1 7 5 7 7 0 12
-4 12 -9z m960 -3 c0 -4 -4 -8 -9 -8 -6 0 -12 4 -15 8 -3 5 1 9 9 9 8 0 15 -4
15 -9z m-3564 -32 c-2 -38 -12 -39 -12 -1 0 18 3 32 7 30 3 -3 5 -15 5 -29z
m2124 30 c0 -2 -8 -10 -17 -17 -16 -13 -17 -12 -4 4 13 16 21 21 21 13z m240
0 c0 -2 -8 -10 -17 -17 -16 -13 -17 -12 -4 4 13 16 21 21 21 13z m-2400 -14
c0 -5 -7 -9 -15 -9 -8 0 -12 4 -9 9 3 4 9 8 15 8 5 0 9 -4 9 -8z m1197 -7 c0
-8 -4 -12 -9 -9 -5 3 -6 10 -3 15 9 13 12 11 12 -6z m809 3 c3 -4 -1 -5 -10
-4 -8 1 -18 5 -22 8 -3 4 1 5 10 4 8 -1 18 -5 22 -8z m1709 4 c-3 -3 0 -11 6
-19 17 -20 5 -16 -14 5 -15 16 -15 19 -2 19 8 0 13 -3 10 -5z m160 0 c-3 -3 0
-11 6 -19 17 -20 5 -16 -14 5 -15 16 -15 19 -2 19 8 0 13 -3 10 -5z m45 2 c0
-8 -19 -13 -24 -6 -3 5 1 9 9 9 8 0 15 -2 15 -3z m50 2 c0 -2 -8 -10 -17 -17
-16 -13 -17 -12 -4 4 13 16 21 21 21 13z m-4664 -28 c12 -14 13 -18 3 -10 -9
6 -18 10 -21 7 -2 -3 -5 2 -5 10 0 19 0 19 23 -7z m2802 14 c15 12 16 11 3 -4
-14 -19 -32 -15 -30 5 0 8 2 8 6 -1 4 -10 8 -10 21 0z m72 4 c0 -2 -8 -10 -17
-17 -16 -13 -17 -12 -4 4 13 16 21 21 21 13z m180 0 c0 -2 -6 -9 -14 -15 -11
-9 -16 -9 -22 0 -4 7 -3 9 4 5 6 -3 13 -2 17 4 6 10 15 14 15 6z m60 0 c0 -2
-8 -10 -17 -17 -16 -13 -17 -12 -4 4 13 16 21 21 21 13z m337 -41 c0 -8 -4
-12 -9 -9 -5 4 -7 9 -4 12 3 3 -2 15 -11 26 -18 21 -18 21 3 3 11 -9 21 -24
21 -32z m-2681 11 c1 -7 -4 -13 -12 -13 -9 0 -11 4 -4 12 5 7 8 15 5 18 -3 4
-2 5 2 2 4 -3 8 -11 9 -19z m1084 -8 c0 -4 -4 -8 -9 -8 -6 0 -12 4 -15 8 -3 5
1 9 9 9 8 0 15 -4 15 -9z m-1844 -10 c5 4 6 3 2 -2 -4 -5 -2 -16 4 -25 10 -12
7 -12 -8 2 -11 9 -23 15 -26 12 -2 -3 -5 2 -5 10 0 10 4 12 12 5 7 -5 16 -6
21 -2z m694 -4 c0 -8 -19 -13 -24 -6 -3 5 1 9 9 9 8 0 15 -2 15 -3z m1245 -12
c-3 -3 -11 0 -18 7 -9 10 -8 11 6 5 10 -3 15 -9 12 -12z m786 4 c-4 -6 -7 -23
-6 -39 1 -15 -1 -25 -4 -22 -12 12 -7 72 6 72 7 0 9 -5 4 -11z m1473 6 c3 -5
-1 -9 -9 -9 -8 0 -12 4 -9 9 3 4 7 8 9 8 2 0 6 -4 9 -8z m-2170 -20 c3 -5 -1
-9 -9 -9 -8 0 -12 4 -9 9 3 4 7 8 9 8 2 0 6 -4 9 -8z m1410 -8 c3 -8 2 -12 -4
-9 -6 3 -10 10 -10 16 0 14 7 11 14 -7z m-3448 -16 c13 -16 14 -19 2 -10 -13
10 -17 10 -21 0 -3 -7 -4 -3 -4 10 1 12 2 22 3 22 0 0 9 -10 20 -22z m4154 18
c0 -2 -8 -10 -17 -17 -16 -13 -17 -12 -4 4 13 16 21 21 21 13z m41 -13 c13
-16 12 -17 -3 -4 -17 13 -22 21 -14 21 2 0 10 -8 17 -17z m-2261 -3 c0 -5 -2
-10 -4 -10 -3 0 -8 5 -11 10 -3 6 -1 10 4 10 6 0 11 -4 11 -10z m-1867 -35 c4
3 5 2 2 -2 -3 -4 -13 -8 -21 -9 -9 -1 -13 0 -10 3 3 4 0 13 -6 22 -10 12 -7
12 8 -2 11 -9 24 -15 27 -12z m1927 21 c0 -3 -4 -8 -10 -11 -5 -3 -10 -1 -10
4 0 6 5 11 10 11 6 0 10 -2 10 -4z m706 -8 c3 -4 -1 -5 -10 -4 -8 1 -18 5 -22
8 -3 4 1 5 10 4 8 -1 18 -5 22 -8z m-1946 -19 c0 -5 -4 -9 -8 -9 -5 0 -9 7 -9
15 0 8 4 12 9 9 4 -3 8 -9 8 -15z m1161 4 c13 -16 12 -17 -3 -4 -17 13 -22 21
-14 21 2 0 10 -8 17 -17z m-1224 -8 c0 -8 -4 -12 -9 -9 -5 3 -6 10 -3 15 9 13
12 11 12 -6z m1263 5 c0 -5 -2 -10 -4 -10 -3 0 -8 5 -11 10 -3 6 -1 10 4 10 6
0 11 -4 11 -10z m695 0 c3 -5 1 -10 -4 -10 -6 0 -11 5 -11 10 0 6 2 10 4 10 3
0 8 -4 11 -10z m818 -10 c10 -12 9 -12 -4 -2 -9 6 -18 9 -21 6 -3 -3 -9 -1
-12 4 -9 15 22 8 37 -8z m693 8 c3 -4 -1 -5 -10 -4 -8 1 -18 5 -22 8 -3 4 1 5
10 4 8 -1 18 -5 22 -8z m-1466 -12 c0 -3 -4 -8 -10 -11 -5 -3 -10 -1 -10 4 0
6 5 11 10 11 6 0 10 -2 10 -4z m-44 -30 c0 -14 -3 -23 -7 -20 -6 3 -6 22 0 42
3 10 7 -2 7 -22z m816 9 c2 3 5 -2 5 -10 0 -19 0 -19 -23 7 -12 14 -13 18 -3
10 9 -6 18 -10 21 -7z m-2708 -4 c-7 -8 -54 -9 -59 -2 -2 4 12 7 30 7 19 0 32
-3 29 -5z m3454 -26 c-3 -3 -9 2 -12 12 -6 14 -5 15 5 6 7 -7 10 -15 7 -18z
m-4194 7 c3 -5 -1 -9 -9 -9 -8 0 -12 4 -9 9 3 4 7 8 9 8 2 0 6 -4 9 -8z m1873
1 c-4 -3 -1 -13 6 -22 11 -14 10 -14 -5 -2 -16 12 -16 31 -1 31 4 0 3 -3 0 -7z
m-1165 -18 c2 3 4 -11 3 -30 0 -18 -3 -36 -6 -40 -3 -3 -5 7 -4 22 1 16 -5 37
-14 48 -15 18 -15 19 0 7 9 -6 18 -10 21 -7z m-637 -14 c3 -5 2 -12 -3 -15 -5
-3 -9 1 -9 9 0 17 3 19 12 6z m4085 5 c0 -2 -8 -10 -17 -17 -16 -13 -17 -12
-4 4 13 16 21 21 21 13z m36 -22 c1 -9 0 -13 -4 -10 -3 4 -7 14 -8 22 -1 9 0
13 4 10 3 -4 7 -14 8 -22z m-4152 8 c2 -4 -4 -8 -14 -8 -10 0 -16 4 -14 8 3 4
9 8 14 8 5 0 11 -4 14 -8z m707 -15 c-10 -9 -11 -8 -5 6 3 10 9 15 12 12 3 -3
0 -11 -7 -18z m1204 13 c3 -5 1 -10 -4 -10 -6 0 -11 5 -11 10 0 6 2 10 4 10 3
0 8 -4 11 -10z m-55 -4 c0 -2 -8 -10 -17 -17 -16 -13 -17 -12 -4 4 13 16 21
21 21 13z m780 -16 c0 -5 -2 -10 -4 -10 -3 0 -8 5 -11 10 -3 6 -1 10 4 10 6 0
11 -4 11 -10z m1550 6 c0 -2 -8 -10 -17 -17 -16 -13 -17 -12 -4 4 13 16 21 21
21 13z m-2313 -21 c0 -8 -4 -12 -9 -9 -5 3 -6 10 -3 15 9 13 12 11 12 -6z
m2228 -42 c-18 -17 -18 -17 -6 0 11 14 11 20 0 35 -12 16 -12 16 6 0 19 -18
19 -18 0 -35z m-4061 16 c3 -3 -12 -5 -33 -4 -22 0 -37 3 -35 7 5 7 60 5 68
-3z m2547 -6 c13 -16 12 -17 -3 -4 -17 13 -22 21 -14 21 2 0 10 -8 17 -17z
m1564 7 c3 -5 1 -10 -4 -10 -6 0 -11 5 -11 10 0 6 2 10 4 10 3 0 8 -4 11 -10z
m-2276 -44 c-3 -3 -11 5 -18 17 -13 21 -12 21 5 5 10 -10 16 -20 13 -22z
m-1858 7 c13 -16 12 -17 -3 -4 -10 7 -18 15 -18 17 0 8 8 3 21 -13z m3391 2
c2 3 5 -2 5 -10 0 -19 0 -19 -23 7 -12 14 -13 18 -3 10 9 -6 18 -10 21 -7z
m-812 1 c0 -3 -4 -8 -10 -11 -5 -3 -10 -1 -10 4 0 6 5 11 10 11 6 0 10 -2 10
-4z m-2596 -24 c3 -5 -1 -9 -9 -9 -8 0 -15 4 -15 9 0 4 4 8 9 8 6 0 12 -4 15
-8z m673 -7 c0 -8 -4 -12 -9 -9 -5 3 -6 10 -3 15 9 13 12 11 12 -6z m3434 -2
c13 -16 12 -17 -3 -4 -17 13 -22 21 -14 21 2 0 10 -8 17 -17z m-4057 -19 c3
-8 2 -12 -4 -9 -6 3 -10 10 -10 16 0 14 7 11 14 -7z m1831 6 c3 -6 -1 -7 -9
-4 -18 7 -21 14 -7 14 6 0 13 -4 16 -10z m-1833 -34 c3 3 8 1 12 -4 11 -18
-25 -8 -41 12 -18 21 -18 21 3 3 11 -9 23 -14 26 -11z m2472 16 c3 -5 -1 -9
-9 -9 -8 0 -12 4 -9 9 3 4 7 8 9 8 2 0 6 -4 9 -8z m71 -1 c3 -5 2 -12 -3 -15
-5 -3 -9 1 -9 9 0 17 3 19 12 6z m1556 -14 c-10 -9 -11 -8 -5 6 3 10 9 15 12
12 3 -3 0 -11 -7 -18z m-2896 -6 c-9 -8 -36 -10 -30 -2 2 4 11 8 20 8 8 0 13
-3 10 -6z m1305 -23 c0 -4 -4 -8 -9 -8 -6 0 -12 4 -15 8 -3 5 1 9 9 9 8 0 15
-4 15 -9z m-1305 -18 c3 -5 1 -10 -4 -10 -6 0 -11 5 -11 10 0 6 2 10 4 10 3 0
8 -4 11 -10z m2175 6 c0 -2 -8 -10 -17 -17 -16 -13 -17 -12 -4 4 13 16 21 21
21 13z m-2073 -12 c-3 -3 -12 -4 -19 -1 -8 3 -5 6 6 6 11 1 17 -2 13 -5z
m-1286 -21 c13 -16 12 -17 -3 -4 -10 7 -18 15 -18 17 0 8 8 3 21 -13z m-20
-20 c13 -17 13 -17 -6 -3 -11 8 -22 16 -24 17 -2 2 0 3 6 3 6 0 17 -8 24 -17z
m2464 7 c3 -5 1 -10 -4 -10 -6 0 -11 5 -11 10 0 6 2 10 4 10 3 0 8 -4 11 -10z
m75 6 c0 -2 -8 -10 -17 -17 -16 -13 -17 -12 -4 4 13 16 21 21 21 13z m1568
-31 c-3 -3 -9 2 -12 12 -6 14 -5 15 5 6 7 -7 10 -15 7 -18z m-4058 9 c0 -8
-19 -13 -24 -6 -3 5 1 9 9 9 8 0 15 -2 15 -3z m1175 -12 c-3 -3 -11 0 -18 7
-9 10 -8 11 6 5 10 -3 15 -9 12 -12z m2135 14 c0 -2 -8 -10 -17 -17 -16 -13
-17 -12 -4 4 13 16 21 21 21 13z m-2053 -19 c0 -7 -11 -13 -23 -13 -12 0 -20
4 -18 8 3 5 9 6 14 3 5 -3 11 -1 15 5 8 13 12 13 12 -3z m2073 -1 c0 -2 -8
-10 -17 -17 -16 -13 -17 -12 -4 4 13 16 21 21 21 13z m690 -10 c0 -2 -8 -10
-17 -17 -16 -13 -17 -12 -4 4 13 16 21 21 21 13z m36 -22 c1 -9 0 -13 -4 -10
-3 4 -7 14 -8 22 -1 9 0 13 4 10 3 -4 7 -14 8 -22z m-1602 0 c3 -8 2 -12 -4
-9 -6 3 -10 10 -10 16 0 14 7 11 14 -7z m-1290 -13 c-7 -8 -54 -9 -59 -2 -2 4
12 7 30 7 19 0 32 -3 29 -5z m137 -4 c-6 -8 -8 -16 -5 -19 3 -3 1 -9 -4 -12
-6 -3 -9 0 -8 6 2 16 15 38 23 38 3 0 0 -6 -6 -13z m1119 3 c0 -5 -2 -10 -4
-10 -3 0 -8 5 -11 10 -3 6 -1 10 4 10 6 0 11 -4 11 -10z m881 -3 c-6 -8 -7
-18 -3 -22 4 -5 1 -5 -6 -1 -10 6 -10 11 -1 22 6 8 14 14 16 14 3 0 0 -6 -6
-13z m789 9 c0 -2 -8 -10 -17 -17 -16 -13 -17 -12 -4 4 13 16 21 21 21 13z
m-4105 -25 c-9 -8 -36 -10 -30 -2 2 4 11 8 20 8 8 0 13 -3 10 -6z m1280 0 c-9
-8 -36 -10 -30 -2 2 4 11 8 20 8 8 0 13 -3 10 -6z m2750 -19 c-3 -3 1 -12 8
-21 11 -14 10 -14 -6 -2 -9 8 -15 16 -12 19 3 3 -1 12 -8 21 -11 14 -10 14 6
2 9 -8 15 -16 12 -19z m-2897 -7 c-3 -3 -9 2 -12 12 -6 14 -5 15 5 6 7 -7 10
-15 7 -18z m2937 6 c3 -5 2 -12 -3 -15 -5 -3 -9 1 -9 9 0 17 3 19 12 6z
m-4040 -31 c10 -11 16 -20 13 -20 -3 0 -13 9 -23 20 -10 11 -16 20 -13 20 3 0
13 -9 23 -20z m1297 -4 c3 3 8 1 12 -4 11 -18 -25 -8 -41 12 -18 21 -18 21 3
3 11 -9 23 -14 26 -11z m-195 -1 c0 -8 -4 -15 -9 -15 -10 0 -11 14 -1 23 9 10
10 9 10 -8z m1257 -3 c3 -5 -1 -9 -9 -9 -8 0 -12 4 -9 9 3 4 7 8 9 8 2 0 6 -4
9 -8z m1656 -16 c0 -2 -8 -10 -17 -17 -16 -13 -17 -12 -4 4 13 16 21 21 21 13z
m-2714 -32 c1 -9 0 -13 -4 -10 -3 4 -7 14 -8 22 -1 9 0 13 4 10 3 -4 7 -14 8
-22z m-1340 -8 c0 -14 -3 -23 -7 -20 -6 3 -6 22 0 42 3 10 7 -2 7 -22z m1104
15 c0 -6 -4 -12 -8 -15 -5 -3 -9 1 -9 9 0 8 4 15 9 15 4 0 8 -4 8 -9z m-1048
-35 c3 3 8 1 12 -4 11 -18 -25 -8 -41 12 -18 21 -18 21 3 3 11 -9 23 -14 26
-11z m1267 -10 c-3 -3 -11 5 -18 17 -13 21 -12 21 5 5 10 -10 16 -20 13 -22z
m1995 18 c3 -8 2 -12 -4 -9 -6 3 -10 10 -10 16 0 14 7 11 14 -7z m-2190 -12
c3 -5 -1 -9 -9 -9 -8 0 -12 4 -9 9 3 4 7 8 9 8 2 0 6 -4 9 -8z m1276 2 c0 -8
-19 -13 -24 -6 -3 5 1 9 9 9 8 0 15 -2 15 -3z m-2344 -50 c1 -9 0 -13 -4 -10
-3 4 -7 14 -8 22 -1 9 0 13 4 10 3 -4 7 -14 8 -22z m1084 22 c0 -2 -8 -10 -17
-17 -16 -13 -17 -12 -4 4 13 16 21 21 21 13z m196 -11 c-1 -8 -5 -17 -8 -21
-5 -4 -4 16 1 34 3 9 9 -1 7 -13z m1997 -15 c10 -12 9 -12 -4 -2 -9 6 -18 9
-21 6 -3 -3 -9 -1 -12 4 -9 15 22 8 37 -8z m693 -8 c-17 -16 -18 -16 -5 5 7
12 15 20 18 17 3 -2 -3 -12 -13 -22z m-1629 3 c0 -8 -4 -12 -9 -9 -5 3 -6 10
-3 15 9 13 12 11 12 -6z m-2334 -20 c11 2 16 1 13 -2 -3 -4 0 -13 6 -22 10
-12 7 -12 -8 2 -11 9 -23 15 -26 12 -3 -3 -13 5 -24 17 -19 23 -19 23 1 7 11
-9 28 -15 38 -14z m1013 -1 c1 -9 0 -13 -4 -10 -3 4 -7 14 -8 22 -1 9 0 13 4
10 3 -4 7 -14 8 -22z m1368 18 c3 -5 -1 -9 -9 -9 -8 0 -15 4 -15 9 0 4 4 8 9
8 6 0 12 -4 15 -8z m888 -17 c2 3 5 -2 5 -10 0 -19 0 -19 -23 7 -12 14 -13 18
-3 10 9 -6 18 -10 21 -7z m-2281 -12 c13 -16 12 -17 -3 -4 -10 7 -18 15 -18
17 0 8 8 3 21 -13z m320 -6 c-10 -9 -11 -8 -5 6 3 10 9 15 12 12 3 -3 0 -11
-7 -18z m1004 14 c-9 -8 -36 -10 -30 -2 2 4 11 8 20 8 8 0 13 -3 10 -6z m1656
-28 c13 -16 12 -17 -3 -4 -17 13 -22 21 -14 21 2 0 10 -8 17 -17z m-3975 -19
c1 -9 0 -13 -4 -10 -3 4 -7 14 -8 22 -1 9 0 13 4 10 3 -4 7 -14 8 -22z m2377
11 c-3 -9 -8 -14 -10 -11 -3 3 -2 9 2 15 9 16 15 13 8 -4z m-1378 -4 c3 -5 2
-12 -3 -15 -5 -3 -9 1 -9 9 0 17 3 19 12 6z m297 -18 c-1 -4 7 -17 16 -28 17
-20 17 -20 -4 -2 -11 9 -21 24 -21 32 0 8 2 13 5 11 2 -2 4 -8 4 -13z m45 -10
c0 -9 -4 -10 -14 -2 -7 6 -13 12 -13 14 0 1 6 2 13 2 8 0 14 -6 14 -14z m2674
-6 c-10 -9 -11 -8 -5 6 3 10 9 15 12 12 3 -3 0 -11 -7 -18z m-2955 -9 c2 -3
-13 -5 -35 -4 -22 0 -37 4 -35 7 4 7 62 4 70 -3z m1258 3 c-7 -8 -54 -9 -59
-2 -2 4 12 7 30 7 19 0 32 -3 29 -5z m-1002 -36 c3 3 13 -5 24 -17 19 -23 19
-23 -2 -5 -11 9 -23 15 -26 12 -3 -3 -13 5 -24 17 -19 23 -19 23 2 5 11 -9 23
-15 26 -12z m1005 0 c0 -8 -4 -15 -9 -15 -10 0 -11 14 -1 23 9 10 10 9 10 -8z
m-1277 -5 c0 -5 -2 -10 -4 -10 -3 0 -8 5 -11 10 -3 6 -1 10 4 10 6 0 11 -4 11
-10z m2250 6 c0 -2 -8 -10 -17 -17 -16 -13 -17 -12 -4 4 13 16 21 21 21 13z
m685 -61 c1 -19 -1 -32 -4 -29 -3 3 -6 21 -6 39 -1 19 1 32 4 29 3 -3 6 -21 6
-39z m45 31 c-7 -7 -13 -7 -20 0 -6 6 -3 10 10 10 13 0 16 -4 10 -10z m36 -1
c-1 -8 -5 -17 -8 -21 -5 -4 -4 16 1 34 3 9 9 -1 7 -13z m-4004 -10 c2 3 5 -2
5 -10 0 -10 -4 -12 -12 -5 -7 5 -14 8 -17 5 -2 -3 -5 2 -5 10 0 10 4 12 12 5
7 -5 14 -8 17 -5z m1267 2 c8 -10 7 -14 -2 -14 -8 0 -14 6 -14 14 0 7 1 13 2
13 2 0 8 -6 14 -13z m1017 -5 c-8 -7 -66 -10 -70 -3 -2 3 13 7 35 7 22 1 37
-1 35 -4z m925 -5 c-6 -8 -7 -18 -3 -22 4 -5 1 -5 -6 -1 -10 6 -10 11 -1 22 6
8 14 14 16 14 3 0 0 -6 -6 -13z m-2281 -1 c0 -2 -8 -10 -17 -17 -16 -13 -17
-12 -4 4 13 16 21 21 21 13z m363 -21 c-3 -9 -8 -14 -10 -11 -3 3 -2 9 2 15 9
16 15 13 8 -4z m33 -11 c1 -9 0 -13 -3 -10 -4 3 -13 0 -22 -6 -12 -10 -12 -7
2 8 9 11 15 24 12 27 -3 4 -2 5 2 2 4 -3 8 -13 9 -21z m-1340 -10 c1 -9 0 -13
-4 -10 -3 4 -7 14 -8 22 -1 9 0 13 4 10 3 -4 7 -14 8 -22z m1282 1 c-3 -3 -9
2 -12 12 -6 14 -5 15 5 6 7 -7 10 -15 7 -18z m974 10 c2 3 4 -11 3 -30 0 -18
-3 -36 -6 -40 -3 -3 -5 7 -4 22 1 16 -5 37 -14 48 -15 18 -15 19 0 7 9 -6 18
-10 21 -7z m-1287 -5 c3 -6 -1 -7 -9 -4 -18 7 -21 14 -7 14 6 0 13 -4 16 -10z
m-955 -34 c0 -2 -8 -10 -17 -17 -16 -13 -17 -12 -4 4 13 16 21 21 21 13z m25
-5 c3 -5 2 -12 -3 -15 -5 -3 -9 1 -9 9 0 17 3 19 12 6z m1266 -4 c-6 -8 -9
-16 -6 -19 3 -2 -2 -5 -10 -5 -13 0 -13 3 2 19 19 21 31 25 14 5z m1949 9 c0
-2 -8 -10 -17 -17 -16 -13 -17 -12 -4 4 13 16 21 21 21 13z m-2355 -15 c3 -5
2 -12 -3 -15 -5 -3 -9 1 -9 9 0 17 3 19 12 6z m42 -25 c0 -15 -21 -16 -34 -1
-4 4 -3 5 4 1 6 -3 14 -2 18 4 8 14 12 13 12 -4z m3073 -1 c-7 -9 -15 -13 -18
-10 -3 3 -10 0 -17 -5 -8 -7 -12 -5 -12 4 0 8 8 13 18 11 10 -2 21 0 24 6 4 5
9 9 12 9 3 0 0 -7 -7 -15z m-2653 -12 c0 -9 -4 -10 -14 -2 -7 6 -13 12 -13 14
0 1 6 2 13 2 8 0 14 -6 14 -14z m1893 12 c0 -2 -6 -8 -13 -14 -10 -8 -14 -7
-14 2 0 8 6 14 14 14 7 0 13 -1 13 -2z m691 -22 c13 -16 12 -17 -3 -4 -17 13
-22 21 -14 21 2 0 10 -8 17 -17z m-3924 -48 c0 -8 -4 -12 -9 -9 -5 4 -7 9 -4
12 3 3 -2 15 -11 26 -18 21 -18 21 3 3 11 -9 21 -24 21 -32z m1303 41 c0 -2
-8 -10 -17 -17 -16 -13 -17 -12 -4 4 13 16 21 21 21 13z m-380 -16 c0 -5 -5
-10 -11 -10 -5 0 -7 5 -4 10 3 6 8 10 11 10 2 0 4 -4 4 -10z m433 -8 c15 -16
15 -19 2 -19 -8 0 -13 3 -10 5 3 3 0 11 -6 19 -17 20 -5 16 14 -5z m1848 5
c-6 -8 -7 -18 -3 -22 4 -5 1 -5 -6 -1 -10 6 -10 11 -1 22 6 8 14 14 16 14 3 0
0 -6 -6 -13z m-1008 -12 c-3 -9 -8 -14 -10 -11 -3 3 -2 9 2 15 9 16 15 13 8
-4z m-869 -3 c2 -4 -4 -8 -14 -8 -10 0 -16 4 -14 8 3 4 9 8 14 8 5 0 11 -4 14
-8z m2606 4 c0 -2 -8 -10 -17 -17 -16 -13 -17 -12 -4 4 13 16 21 21 21 13z
m-3086 -24 c2 -4 -4 -8 -14 -8 -10 0 -16 4 -14 8 3 4 9 8 14 8 5 0 11 -4 14
-8z m1327 -9 c12 -16 12 -17 -2 -6 -9 7 -19 10 -22 6 -4 -3 -7 -1 -7 5 0 17
16 15 31 -5z m-814 -26 c1 -11 1 -18 0 -16 -2 2 -8 11 -15 20 -9 12 -9 16 1
16 7 0 14 -9 14 -20z m-497 9 c0 -2 -8 -10 -17 -17 -16 -13 -17 -12 -4 4 13
16 21 21 21 13z m34 -26 c-6 -6 -10 -3 -10 10 0 13 4 16 10 10 7 -7 7 -13 0
-20z m437 3 c13 -17 13 -17 -6 -3 -11 8 -22 16 -24 17 -2 2 0 3 6 3 6 0 17 -8
24 -17z m843 6 c3 -3 -5 -5 -19 -5 -13 0 -22 3 -19 7 4 8 30 6 38 -2z m-2174
-24 c-5 -7 -9 -14 -7 -16 1 -2 0 -3 -2 -1 -11 7 -7 29 5 29 9 0 11 -4 4 -12z
m1311 -27 c-11 -11 -13 -10 -7 0 4 7 2 21 -5 30 -12 15 -11 15 6 0 16 -15 17
-20 6 -30z m825 6 c1 -9 0 -13 -4 -10 -3 4 -7 14 -8 22 -1 9 0 13 4 10 3 -4 7
-14 8 -22z m1080 0 c1 -9 0 -13 -4 -10 -3 4 -7 14 -8 22 -1 9 0 13 4 10 3 -4
7 -14 8 -22z m-3164 5 c2 -2 1 -3 -1 -1 -2 1 -14 -6 -25 -15 -15 -14 -18 -14
-8 -2 6 9 9 18 6 22 -3 3 1 4 10 3 8 -1 17 -4 18 -7z m788 0 c0 -4 -9 -7 -19
-6 -11 0 -18 4 -16 7 6 9 35 8 35 -1z m3066 -17 c-17 -16 -18 -16 -5 5 7 12
15 20 18 17 3 -2 -3 -12 -13 -22z m50 -8 c1 -9 0 -13 -4 -10 -3 4 -7 14 -8 22
-1 9 0 13 4 10 3 -4 7 -14 8 -22z m-3896 2 c0 -2 -8 -10 -17 -17 -16 -13 -17
-12 -4 4 13 16 21 21 21 13z m1280 0 c0 -2 -8 -10 -17 -17 -16 -13 -17 -12 -4
4 13 16 21 21 21 13z m56 -51 c0 -13 -3 -22 -7 -20 -4 3 -6 13 -4 23 1 9 -5
26 -13 37 -16 19 -16 19 3 3 11 -10 20 -29 21 -43z m1816 40 c2 3 5 -2 5 -10
0 -19 0 -19 -23 7 -12 14 -13 18 -3 10 9 -6 18 -10 21 -7z m-2392 -4 c0 -6 -4
-12 -8 -15 -5 -3 -9 1 -9 9 0 8 4 15 9 15 4 0 8 -4 8 -9z m31 -8 c13 -16 12
-17 -3 -4 -10 7 -18 15 -18 17 0 8 8 3 21 -13z m3139 13 c0 -2 -8 -10 -17 -17
-16 -13 -17 -12 -4 4 13 16 21 21 21 13z m-3910 -10 c0 -2 -8 -10 -17 -17 -16
-13 -17 -12 -4 4 13 16 21 21 21 13z m1283 -9 c3 -7 -3 -13 -14 -13 -13 0 -15
3 -7 13 6 7 12 13 13 13 2 0 5 -6 8 -13z m2552 -17 c10 -11 16 -20 13 -20 -3
0 -13 9 -23 20 -10 11 -16 20 -13 20 3 0 13 -9 23 -20z m-3902 -5 c-3 -9 -8
-14 -10 -11 -3 3 -2 9 2 15 9 16 15 13 8 -4z m832 -5 c-3 -5 -12 -10 -18 -10
-7 0 -6 4 3 10 19 12 23 12 15 0z m1319 2 c3 -5 -1 -9 -9 -9 -8 0 -12 4 -9 9
3 4 7 8 9 8 2 0 6 -4 9 -8z m-2087 -29 c0 -9 -4 -10 -14 -2 -7 6 -13 12 -13
14 0 1 6 2 13 2 8 0 14 -6 14 -14z m-26 -20 c13 -17 13 -17 -6 -3 -11 8 -22
16 -24 17 -2 2 0 3 6 3 6 0 17 -8 24 -17z m6 -40 c0 -8 -4 -10 -12 -3 -7 5
-16 6 -20 2 -5 -4 -5 -2 -2 4 9 15 34 13 34 -3z m3173 13 c0 -2 -8 -10 -17
-17 -16 -13 -17 -12 -4 4 13 16 21 21 21 13z m-1790 -10 c0 -2 -8 -10 -17 -17
-16 -13 -17 -12 -4 4 13 16 21 21 21 13z m-1269 -43 c13 -17 13 -17 -6 -3 -11
8 -22 16 -24 17 -2 2 0 3 6 3 6 0 17 -8 24 -17z m146 10 c-4 -3 -2 -11 3 -18
7 -8 5 -12 -4 -12 -8 0 -12 7 -11 16 5 22 4 21 12 21 3 0 3 -3 0 -7z m79 -29
c1 -9 -1 -13 -4 -9 -4 4 -7 10 -7 13 0 4 -4 14 -9 22 -7 12 -6 13 4 3 8 -7 15
-20 16 -29z m121 29 c-4 -3 -1 -13 6 -22 11 -14 10 -14 -5 -2 -16 12 -16 31
-1 31 4 0 3 -3 0 -7z m40 0 c-4 -3 -2 -11 3 -18 7 -8 5 -12 -4 -12 -8 0 -12 7
-11 16 5 22 4 21 12 21 3 0 3 -3 0 -7z m94 -10 c13 -17 13 -17 -6 -3 -11 8
-22 16 -24 17 -2 2 0 3 6 3 6 0 17 -8 24 -17z m720 0 c13 -16 12 -17 -3 -4
-17 13 -22 21 -14 21 2 0 10 -8 17 -17z m113 9 c3 -5 -1 -9 -9 -9 -8 0 -12 4
-9 9 3 4 7 8 9 8 2 0 6 -4 9 -8z m113 1 c-4 -3 -2 -11 3 -18 7 -8 5 -12 -4
-12 -8 0 -12 7 -11 16 5 22 4 21 12 21 3 0 3 -3 0 -7z m79 -29 c1 -9 -1 -13
-4 -9 -4 4 -7 10 -7 13 0 4 -4 14 -9 22 -7 12 -6 13 4 3 8 -7 15 -20 16 -29z
m79 8 c-3 -3 3 -15 12 -26 18 -21 18 -21 -5 -2 -12 11 -20 21 -17 24 3 3 -1
12 -8 21 -11 14 -10 14 6 2 9 -8 15 -16 12 -19z m82 21 c-4 -3 -2 -11 3 -18 7
-8 5 -12 -4 -12 -8 0 -12 7 -11 16 5 22 4 21 12 21 3 0 3 -3 0 -7z m94 -10
c13 -17 13 -17 -6 -3 -11 8 -22 16 -24 17 -2 2 0 3 6 3 6 0 17 -8 24 -17z
m1360 0 c13 -16 12 -17 -3 -4 -17 13 -22 21 -14 21 2 0 10 -8 17 -17z m145
-19 c1 -9 -1 -13 -4 -9 -4 4 -7 10 -7 13 0 4 -4 14 -9 22 -7 12 -6 13 4 3 8
-7 15 -20 16 -29z m79 8 c-3 -3 3 -15 12 -26 18 -21 18 -21 -5 -2 -12 11 -20
21 -17 24 3 3 -1 12 -8 21 -11 14 -10 14 6 2 9 -8 15 -16 12 -19z m82 21 c-4
-3 -2 -11 3 -18 7 -8 5 -12 -4 -12 -8 0 -12 7 -11 16 5 22 4 21 12 21 3 0 3
-3 0 -7z m94 -10 c13 -17 13 -17 -6 -3 -11 8 -22 16 -24 17 -2 2 0 3 6 3 6 0
17 -8 24 -17z m-3332 -6 c8 -10 7 -14 -2 -14 -8 0 -14 6 -14 14 0 7 1 13 2 13
2 0 8 -6 14 -13z m237 -13 c1 -9 0 -13 -4 -10 -3 4 -7 14 -8 22 -1 9 0 13 4
10 3 -4 7 -14 8 -22z m845 9 c13 -16 12 -17 -3 -4 -17 13 -22 21 -14 21 2 0
10 -8 17 -17z m198 4 c8 -10 7 -14 -2 -14 -8 0 -14 6 -14 14 0 7 1 13 2 13 2
0 8 -6 14 -13z m237 -13 c1 -9 0 -13 -4 -10 -3 4 -7 14 -8 22 -1 9 0 13 4 10
3 -4 7 -14 8 -22z m1760 0 c1 -9 0 -13 -4 -10 -3 4 -7 14 -8 22 -1 9 0 13 4
10 3 -4 7 -14 8 -22z m-3463 -9 c4 3 5 2 2 -2 -3 -4 -13 -8 -21 -9 -9 -1 -13
0 -10 3 3 4 0 13 -6 22 -10 12 -7 12 8 -2 11 -9 24 -15 27 -12z m113 13 c3 -4
-1 -5 -10 -4 -8 1 -18 5 -22 8 -3 4 1 5 10 4 8 -1 18 -5 22 -8z m160 0 c3 -4
-1 -5 -10 -4 -8 1 -18 5 -22 8 -3 4 1 5 10 4 8 -1 18 -5 22 -8z m207 -13 c4 3
5 2 2 -2 -3 -4 -13 -8 -21 -9 -9 -1 -13 0 -10 3 3 4 0 13 -6 22 -10 12 -7 12
8 -2 11 -9 24 -15 27 -12z m913 13 c3 -4 -1 -5 -10 -4 -8 1 -18 5 -22 8 -3 4
1 5 10 4 8 -1 18 -5 22 -8z m160 0 c3 -4 -1 -5 -10 -4 -8 1 -18 5 -22 8 -3 4
1 5 10 4 8 -1 18 -5 22 -8z m80 0 c3 -4 -1 -5 -10 -4 -8 1 -18 5 -22 8 -3 4 1
5 10 4 8 -1 18 -5 22 -8z m127 -13 c4 3 5 2 2 -2 -3 -4 -13 -8 -21 -9 -9 -1
-13 0 -10 3 3 4 0 13 -6 22 -10 12 -7 12 8 -2 11 -9 24 -15 27 -12z m1277 21
c0 -2 -8 -10 -17 -17 -16 -13 -17 -12 -4 4 13 16 21 21 21 13z m69 -30 c-3 -3
-11 5 -18 17 -13 21 -12 21 5 5 10 -10 16 -20 13 -22z m207 22 c3 -4 -1 -5
-10 -4 -8 1 -18 5 -22 8 -3 4 1 5 10 4 8 -1 18 -5 22 -8z m80 0 c3 -4 -1 -5
-10 -4 -8 1 -18 5 -22 8 -3 4 1 5 10 4 8 -1 18 -5 22 -8z m127 -13 c4 3 5 2 2
-2 -3 -4 -13 -8 -21 -9 -9 -1 -13 0 -10 3 3 4 0 13 -6 22 -10 12 -7 12 8 -2
11 -9 24 -15 27 -12z m-3457 3 c5 4 6 3 2 -2 -4 -5 -2 -16 4 -25 10 -12 7 -12
-8 2 -11 9 -23 15 -26 12 -2 -3 -5 2 -5 10 0 10 4 12 12 5 7 -5 16 -6 21 -2z
m1179 3 c3 -5 2 -12 -3 -15 -5 -3 -9 1 -9 9 0 17 3 19 12 6z m101 -3 c5 4 6 3
2 -2 -4 -5 -2 -16 4 -25 10 -12 7 -12 -8 2 -11 9 -23 15 -26 12 -2 -3 -5 2 -5
10 0 10 4 12 12 5 7 -5 16 -6 21 -2z m1851 -6 c-10 -10 -15 -21 -12 -24 3 -3
-5 -13 -17 -24 l-23 -19 19 23 c11 12 15 22 11 22 -4 0 0 9 10 20 10 11 20 20
23 20 3 0 -2 -8 -11 -18z m409 3 c-1 -8 -5 -17 -8 -21 -5 -4 -4 16 1 34 3 9 9
-1 7 -13z m-3659 -1 c-8 -8 -48 -13 -43 -6 2 4 14 8 26 9 12 1 20 0 17 -3z
m3134 -11 c13 -16 12 -17 -3 -4 -15 11 -21 11 -35 0 -16 -13 -17 -12 -4 4 7 9
17 17 21 17 4 0 14 -8 21 -17z m-1811 3 c0 -2 -8 -10 -17 -17 -16 -13 -17 -12
-4 4 13 16 21 21 21 13z m515 -30 c0 -19 -3 -37 -6 -40 -4 -5 -4 62 0 72 4 10
7 -4 6 -32z m-1670 14 c-3 -5 -12 -10 -18 -10 -7 0 -6 4 3 10 19 12 23 12 15
0z m45 5 c0 -1 -10 -10 -22 -21 -14 -12 -18 -13 -10 -3 6 9 10 18 7 21 -3 2 2
5 10 5 8 0 15 -1 15 -2z m195 -4 c-9 -8 -36 -10 -30 -2 2 4 11 8 20 8 8 0 13
-3 10 -6z m45 4 c0 -1 -10 -10 -22 -21 -14 -12 -18 -13 -10 -3 6 9 10 18 7 21
-3 2 2 5 10 5 8 0 15 -1 15 -2z m35 -5 c3 -6 -1 -7 -9 -4 -18 7 -21 14 -7 14
6 0 13 -4 16 -10z m790 1 c3 -5 2 -12 -3 -15 -5 -3 -9 1 -9 9 0 17 3 19 12 6z
m170 -1 c-3 -5 -12 -10 -18 -10 -7 0 -6 4 3 10 19 12 23 12 15 0z m45 5 c0 -1
-10 -10 -22 -21 -14 -12 -18 -13 -10 -3 6 9 10 18 7 21 -3 2 2 5 10 5 8 0 15
-1 15 -2z m149 -29 c-3 -3 -11 5 -18 17 -13 21 -12 21 5 5 10 -10 16 -20 13
-22z m1566 25 c-9 -8 -36 -10 -30 -2 2 4 11 8 20 8 8 0 13 -3 10 -6z m194 -25
c-3 -3 -11 5 -18 17 -13 21 -12 21 5 5 10 -10 16 -20 13 -22z m-3429 9 c-7 -8
-17 -15 -23 -15 -6 0 -2 7 9 15 25 19 30 19 14 0z m140 0 c0 -1 -6 -7 -13 -13
-10 -8 -13 -6 -13 7 0 11 6 17 13 14 7 -3 13 -6 13 -8z m250 12 c0 -2 -8 -11
-18 -20 -15 -14 -19 -15 -19 -2 0 8 4 12 8 9 4 -2 10 0 14 6 6 10 15 14 15 7z
m977 -12 c0 -8 -3 -13 -5 -10 -3 3 -12 -1 -21 -7 -10 -8 -9 -4 3 10 23 26 23
26 23 7z m53 0 c0 -1 -6 -7 -13 -13 -10 -8 -13 -6 -13 7 0 11 6 17 13 14 7 -3
13 -6 13 -8z m334 -6 c-10 -12 -18 -24 -17 -28 1 -3 0 -8 -2 -9 -2 -2 -3 3 -1
11 2 16 25 47 34 47 3 0 -3 -9 -14 -21z m-1485 8 c-2 -1 -13 -9 -24 -17 -19
-14 -19 -14 -6 3 7 9 18 17 24 17 6 0 8 -1 6 -3z m1280 0 c-2 -1 -13 -9 -24
-17 -19 -14 -19 -14 -6 3 7 9 18 17 24 17 6 0 8 -1 6 -3z m1562 -10 c-6 -8 -7
-18 -3 -22 4 -5 1 -5 -6 -1 -10 6 -10 11 -1 22 6 8 14 14 16 14 3 0 0 -6 -6
-13z m-3081 -1 c0 -2 -8 -10 -17 -17 -16 -13 -17 -12 -4 4 13 16 21 21 21 13z
m1760 0 c0 -2 -8 -10 -17 -17 -16 -13 -17 -12 -4 4 13 16 21 21 21 13z m1760
0 c0 -2 -8 -10 -17 -17 -16 -13 -17 -12 -4 4 13 16 21 21 21 13z m-2110 -10
c0 -2 -8 -10 -17 -17 -16 -13 -17 -12 -4 4 13 16 21 21 21 13z m120 0 c0 -2
-8 -10 -17 -17 -16 -13 -17 -12 -4 4 13 16 21 21 21 13z m1590 0 c0 -2 -7 -7
-16 -10 -8 -3 -12 -2 -9 4 6 10 25 14 25 6z"/>
</g>
</svg>
